<svg width="305" height="84" viewBox="0 0 305 84" fill="none" xmlns="http://www.w3.org/2000/svg">
<path d="M302.749 74.3115C302.749 78.7879 298.873 82.414 294.08 82.414H10.3768C5.58545 82.414 1.69629 78.7879 1.69629 74.3115V9.69686C1.69629 5.22251 5.58545 1.5838 10.3768 1.5838H294.077C298.873 1.5838 302.747 5.22251 302.747 9.69686L302.749 74.3115Z" fill="black"/>
<path d="M293.16 1.68271C298.38 1.68271 302.628 5.63858 302.628 10.5001V73.4999C302.628 78.3614 298.38 82.3173 293.16 82.3173H11.2754C6.05488 82.3173 1.80688 78.3614 1.80688 73.4999V10.5001C1.80688 5.63858 6.05488 1.68271 11.2754 1.68271H293.16ZM293.16 9.02324e-05H11.2754C5.07674 9.02324e-05 0 4.72771 0 10.5001V73.4999C0 79.2723 5.07674 83.9999 11.2754 83.9999H293.16C299.359 83.9999 304.435 79.2723 304.435 73.4999V10.5001C304.435 4.72771 299.359 9.02324e-05 293.16 9.02324e-05Z" fill="#A6A6A6"/>
<path d="M67.9419 41.5451C67.8765 34.7768 73.893 31.484 74.1682 31.3307C70.7607 26.7044 65.4793 26.0723 63.6234 26.0219C59.1877 25.5872 54.885 28.4936 52.6254 28.4936C50.3207 28.4936 46.8411 26.0639 43.0909 26.1353C38.2651 26.2046 33.7504 28.8065 31.2743 32.8469C26.1643 41.0852 29.9754 53.1917 34.8712 59.8508C37.3202 63.1121 40.1819 66.7535 43.9276 66.6254C47.5921 66.4847 48.9609 64.4498 53.3831 64.4498C57.7647 64.4498 59.0501 66.6254 62.8702 66.5435C66.8031 66.4847 69.2791 63.2675 71.6425 59.9768C74.4726 56.2388 75.6091 52.5575 75.6543 52.3685C75.5618 52.3391 68.0163 49.6574 67.9419 41.5451Z" fill="white"/>
<path d="M60.7256 21.6413C62.6966 19.346 64.0451 16.2233 63.6708 13.0544C60.8181 13.172 57.2506 14.8919 55.1962 17.1368C53.3786 19.115 51.7549 22.3574 52.1744 25.4066C55.3789 25.6292 58.669 23.9009 60.7256 21.6413Z" fill="white"/>
<path d="M120.973 66.1566H115.851L113.046 57.9477H103.295L100.623 66.1566H95.6367L105.297 38.2098H111.264L120.973 66.1566ZM112.2 54.5037L109.663 47.2062C109.395 46.4607 108.892 44.7051 108.15 41.9415H108.06C107.765 43.1301 107.289 44.8857 106.635 47.2062L104.143 54.5037H112.2Z" fill="white"/>
<path d="M145.814 55.8347C145.814 59.2619 144.819 61.9709 142.83 63.9596C141.049 65.7299 138.837 66.614 136.196 66.614C133.345 66.614 131.298 65.6606 130.051 63.7538H129.961V74.3693H125.153V52.6406C125.153 50.486 125.092 48.2747 124.975 46.0067H129.203L129.471 49.2008H129.561C131.165 46.7942 133.598 45.593 136.863 45.593C139.416 45.593 141.547 46.5317 143.252 48.4112C144.961 50.2928 145.814 52.7666 145.814 55.8347ZM140.916 55.9985C140.916 54.0371 140.442 52.4201 139.491 51.1475C138.451 49.8203 137.055 49.1567 135.305 49.1567C134.119 49.1567 133.041 49.5263 132.078 50.255C131.113 50.99 130.481 51.9497 130.186 53.1383C130.037 53.6927 129.963 54.1463 129.963 54.5033V57.8633C129.963 59.3291 130.445 60.566 131.411 61.5761C132.376 62.5862 133.63 63.0902 135.172 63.0902C136.983 63.0902 138.392 62.4392 139.4 61.1414C140.411 59.8415 140.916 58.1279 140.916 55.9985Z" fill="white"/>
<path d="M170.707 55.8347C170.707 59.2619 169.713 61.9709 167.721 63.9596C165.942 65.7299 163.73 66.614 161.089 66.614C158.239 66.614 156.191 65.6606 154.946 63.7538H154.856V74.3693H150.048V52.6406C150.048 50.486 149.987 48.2747 149.87 46.0067H154.098L154.367 49.2008H154.457C156.058 46.7942 158.491 45.593 161.759 45.593C164.309 45.593 166.44 46.5317 168.15 48.4112C169.852 50.2928 170.707 52.7666 170.707 55.8347ZM165.809 55.9985C165.809 54.0371 165.333 52.4201 164.382 51.1475C163.342 49.8203 161.951 49.1567 160.198 49.1567C159.01 49.1567 157.934 49.5263 156.969 50.255C156.004 50.99 155.375 51.9497 155.079 53.1383C154.933 53.6927 154.856 54.1463 154.856 54.5033V57.8633C154.856 59.3291 155.339 60.566 156.299 61.5761C157.265 62.5841 158.518 63.0902 160.065 63.0902C161.876 63.0902 163.286 62.4392 164.294 61.1414C165.304 59.8415 165.809 58.1279 165.809 55.9985Z" fill="white"/>
<path d="M198.542 58.3204C198.542 60.6976 197.656 62.6317 195.877 64.1248C193.922 65.7565 191.2 66.5713 187.702 66.5713C184.473 66.5713 181.884 65.9917 179.924 64.8304L181.038 61.0987C183.149 62.2873 185.465 62.8837 187.988 62.8837C189.799 62.8837 191.209 62.5015 192.221 61.7413C193.229 60.9811 193.732 59.9605 193.732 58.6879C193.732 57.5539 193.317 56.5984 192.485 55.8235C191.657 55.0486 190.275 54.3283 188.345 53.6626C183.09 51.8377 180.466 49.1644 180.466 45.649C180.466 43.3516 181.386 41.4679 183.228 40.0021C185.064 38.5342 187.513 37.8013 190.575 37.8013C193.306 37.8013 195.575 38.2444 197.385 39.1285L196.183 42.7783C194.492 41.9215 192.58 41.4931 190.44 41.4931C188.748 41.4931 187.427 41.8816 186.48 42.6544C185.679 43.3453 185.278 44.1874 185.278 45.1849C185.278 46.2895 185.736 47.203 186.656 47.9212C187.456 48.5848 188.911 49.303 191.022 50.0779C193.604 51.046 195.5 52.1779 196.72 53.4757C197.936 54.7693 198.542 56.3884 198.542 58.3204Z" fill="white"/>
<path d="M214.427 49.3668H209.127V59.1507C209.127 61.6392 210.061 62.8824 211.933 62.8824C212.792 62.8824 213.504 62.8131 214.068 62.6745L214.201 66.0744C213.254 66.4041 212.007 66.57 210.462 66.57C208.564 66.57 207.08 66.0303 206.009 64.953C204.942 63.8736 204.405 62.0634 204.405 59.5203V49.3626H201.248V46.0026H204.405V42.3129L209.127 40.9857V46.0026H214.427V49.3668Z" fill="white"/>
<path d="M238.343 55.9165C238.343 59.014 237.391 61.5571 235.493 63.5458C233.501 65.5933 230.858 66.6139 227.564 66.6139C224.389 66.6139 221.861 65.6332 219.975 63.6718C218.09 61.7104 217.147 59.2345 217.147 56.2504C217.147 53.1277 218.117 50.5699 220.063 48.5812C222.005 46.5904 224.625 45.595 227.92 45.595C231.095 45.595 233.65 46.5757 235.578 48.5392C237.423 50.4439 238.343 52.903 238.343 55.9165ZM233.355 56.0614C233.355 54.2029 232.928 52.609 232.065 51.2797C231.057 49.6711 229.616 48.8689 227.749 48.8689C225.816 48.8689 224.348 49.6732 223.34 51.2797C222.476 52.6111 222.05 54.2302 222.05 56.1454C222.05 58.0039 222.476 59.5978 223.34 60.925C224.38 62.5336 225.832 63.3358 227.706 63.3358C229.541 63.3358 230.982 62.5168 232.022 60.883C232.908 59.5285 233.355 57.9178 233.355 56.0614Z" fill="white"/>
<path d="M253.976 49.9442C253.5 49.8623 252.992 49.8203 252.46 49.8203C250.769 49.8203 249.461 50.4146 248.541 51.6053C247.74 52.6553 247.339 53.9825 247.339 55.5848V66.1583H242.533L242.578 52.3529C242.578 50.0303 242.517 47.9156 242.398 46.0088H246.586L246.762 49.8644H246.895C247.402 48.5393 248.203 47.4725 249.299 46.6724C250.37 45.9521 251.527 45.593 252.774 45.593C253.218 45.593 253.619 45.6224 253.976 45.6749V49.9442Z" fill="white"/>
<path d="M275.472 55.129C275.472 55.9312 275.416 56.6074 275.297 57.1597H260.873C260.93 59.1505 261.626 60.673 262.966 61.723C264.181 62.6617 265.753 63.1321 267.683 63.1321C269.819 63.1321 271.767 62.815 273.52 62.1787L274.273 65.2867C272.225 66.1183 269.808 66.532 267.018 66.532C263.663 66.532 261.029 65.6122 259.112 63.7747C257.2 61.9372 256.241 59.4697 256.241 56.3743C256.241 53.3356 257.132 50.8051 258.916 48.787C260.783 46.6324 263.306 45.5551 266.482 45.5551C269.6 45.5551 271.961 46.6324 273.565 48.787C274.834 50.4985 275.472 52.6153 275.472 55.129ZM270.888 53.9677C270.919 52.6405 270.606 51.4939 269.954 50.5258C269.122 49.2805 267.844 48.6589 266.123 48.6589C264.551 48.6589 263.273 49.2658 262.296 50.4838C261.496 51.4519 261.02 52.6132 260.873 53.9656H270.888V53.9677Z" fill="white"/>
<path d="M110.612 21.0185C110.612 23.4902 109.816 25.3508 108.226 26.6003C106.754 27.7532 104.661 28.3307 101.95 28.3307C100.606 28.3307 99.4561 28.2761 98.4932 28.1669V14.6618C99.7492 14.4728 101.102 14.3762 102.564 14.3762C105.146 14.3762 107.092 14.8991 108.404 15.9449C109.875 17.1272 110.612 18.8177 110.612 21.0185ZM108.12 21.0794C108.12 19.4771 107.665 18.2486 106.754 17.3918C105.842 16.5371 104.512 16.1087 102.76 16.1087C102.016 16.1087 101.382 16.1549 100.856 16.2515V26.5184C101.147 26.5604 101.68 26.5793 102.453 26.5793C104.262 26.5793 105.658 26.111 106.641 25.1744C107.624 24.2378 108.12 22.8728 108.12 21.0794Z" fill="white"/>
<path d="M123.832 23.1774C123.832 24.6999 123.365 25.9473 122.431 26.9259C121.453 27.9318 120.156 28.4337 118.537 28.4337C116.976 28.4337 115.734 27.9528 114.807 26.9868C113.882 26.0229 113.42 24.807 113.42 23.3412C113.42 21.8082 113.896 20.5503 114.852 19.5738C115.808 18.5973 117.093 18.108 118.713 18.108C120.273 18.108 121.527 18.5889 122.476 19.5528C123.378 20.4894 123.832 21.699 123.832 23.1774ZM121.38 23.2488C121.38 22.3353 121.168 21.552 120.747 20.8989C120.251 20.1093 119.545 19.7145 118.627 19.7145C117.678 19.7145 116.956 20.1093 116.46 20.8989C116.036 21.552 115.826 22.3479 115.826 23.2887C115.826 24.2022 116.038 24.9855 116.46 25.6386C116.972 26.4282 117.684 26.823 118.604 26.823C119.506 26.823 120.214 26.4219 120.724 25.6176C121.162 24.9519 121.38 24.1623 121.38 23.2488Z" fill="white"/>
<path d="M141.535 18.3096L138.209 28.209H136.044L134.667 23.9103C134.317 22.8372 134.033 21.7704 133.812 20.712H133.769C133.564 21.7998 133.28 22.8645 132.914 23.9103L131.451 28.209H129.261L126.133 18.3096H128.562L129.764 23.0157C130.055 24.1287 130.294 25.1892 130.486 26.193H130.528C130.704 25.3656 130.995 24.3114 131.406 23.0367L132.914 18.3117H134.84L136.286 22.9359C136.635 24.0636 136.919 25.1493 137.138 26.1951H137.203C137.364 25.1766 137.605 24.0909 137.925 22.9359L139.215 18.3117H141.535V18.3096Z" fill="white"/>
<path d="M153.794 28.2083H151.43V22.5383C151.43 20.7911 150.718 19.9175 149.288 19.9175C148.587 19.9175 148.021 20.1569 147.581 20.6378C147.146 21.1187 146.925 21.6857 146.925 22.3346V28.2062H144.561V21.1376C144.561 20.2682 144.532 19.3253 144.476 18.3047H146.553L146.663 19.8524H146.728C147.004 19.3715 147.414 18.9746 147.953 18.6575C148.593 18.2879 149.31 18.101 150.095 18.101C151.087 18.101 151.913 18.3992 152.569 18.9977C153.385 19.7306 153.794 20.8247 153.794 22.2779V28.2083Z" fill="white"/>
<path d="M160.313 28.209H157.952V13.7673H160.313V28.209Z" fill="white"/>
<path d="M174.225 23.1774C174.225 24.6999 173.758 25.9473 172.824 26.9259C171.846 27.9318 170.547 28.4337 168.93 28.4337C167.367 28.4337 166.124 27.9528 165.2 26.9868C164.275 26.0229 163.813 24.807 163.813 23.3412C163.813 21.8082 164.289 20.5503 165.245 19.5738C166.201 18.5973 167.487 18.108 169.103 18.108C170.666 18.108 171.918 18.5889 172.869 19.5528C173.771 20.4894 174.225 21.699 174.225 23.1774ZM171.771 23.2488C171.771 22.3353 171.559 21.552 171.137 20.8989C170.644 20.1093 169.936 19.7145 169.02 19.7145C168.068 19.7145 167.347 20.1093 166.853 20.8989C166.429 21.552 166.219 22.3479 166.219 23.2887C166.219 24.2022 166.431 24.9855 166.853 25.6386C167.365 26.4282 168.077 26.823 168.997 26.823C169.899 26.823 170.605 26.4219 171.115 25.6176C171.555 24.9519 171.771 24.1623 171.771 23.2488Z" fill="white"/>
<path d="M185.661 28.209H183.539L183.363 27.0687H183.297C182.571 27.978 181.536 28.4337 180.192 28.4337C179.189 28.4337 178.377 28.1334 177.766 27.537C177.211 26.9952 176.934 26.3211 176.934 25.521C176.934 24.3114 177.475 23.3895 178.564 22.7511C179.651 22.1127 181.18 21.7998 183.149 21.8145V21.6297C183.149 20.3256 182.413 19.6746 180.941 19.6746C179.892 19.6746 178.968 19.9203 178.169 20.4075L177.689 18.9627C178.677 18.3936 179.897 18.108 181.335 18.108C184.114 18.108 185.507 19.473 185.507 22.203V25.8486C185.507 26.8377 185.559 27.6252 185.661 28.209ZM183.207 24.807V23.2803C180.6 23.2383 179.297 23.904 179.297 25.2753C179.297 25.7919 179.446 26.1783 179.75 26.4366C180.055 26.6949 180.442 26.823 180.905 26.823C181.423 26.823 181.908 26.6697 182.35 26.3652C182.795 26.0586 183.067 25.6701 183.169 25.1934C183.194 25.0863 183.207 24.9561 183.207 24.807Z" fill="white"/>
<path d="M199.088 28.209H196.991L196.88 26.6193H196.815C196.145 27.8289 195.004 28.4337 193.4 28.4337C192.12 28.4337 191.053 27.9654 190.207 27.0288C189.362 26.0922 188.94 24.8763 188.94 23.3832C188.94 21.7809 189.398 20.4831 190.318 19.4919C191.209 18.5679 192.3 18.1059 193.599 18.1059C195.026 18.1059 196.025 18.5532 196.594 19.4499H196.639V13.7673H199.004V25.542C199.004 26.5059 199.031 27.3942 199.088 28.209ZM196.639 24.0342V22.3836C196.639 22.098 196.616 21.867 196.573 21.6906C196.44 21.1614 196.154 20.7162 195.719 20.3571C195.279 19.998 194.749 19.8174 194.138 19.8174C193.256 19.8174 192.566 20.1429 192.059 20.796C191.556 21.4491 191.301 22.2828 191.301 23.3013C191.301 24.2799 191.542 25.0737 192.027 25.6848C192.539 26.3358 193.229 26.6613 194.093 26.6613C194.869 26.6613 195.489 26.3904 195.96 25.8465C196.416 25.3446 196.639 24.7398 196.639 24.0342Z" fill="white"/>
<path d="M219.303 23.1774C219.303 24.6999 218.836 25.9473 217.902 26.9259C216.924 27.9318 215.629 28.4337 214.008 28.4337C212.45 28.4337 211.207 27.9528 210.278 26.9868C209.353 26.0229 208.891 24.807 208.891 23.3412C208.891 21.8082 209.367 20.5503 210.323 19.5738C211.279 18.5973 212.565 18.108 214.186 18.108C215.744 18.108 217 18.5889 217.948 19.5528C218.85 20.4894 219.303 21.699 219.303 23.1774ZM216.854 23.2488C216.854 22.3353 216.642 21.552 216.22 20.8989C215.722 20.1093 215.018 19.7145 214.098 19.7145C213.151 19.7145 212.429 20.1093 211.931 20.8989C211.507 21.552 211.297 22.3479 211.297 23.2887C211.297 24.2022 211.509 24.9855 211.931 25.6386C212.443 26.4282 213.155 26.823 214.076 26.823C214.978 26.823 215.688 26.4219 216.198 25.6176C216.633 24.9519 216.854 24.1623 216.854 23.2488Z" fill="white"/>
<path d="M232.014 28.2083H229.653V22.5383C229.653 20.7911 228.941 19.9175 227.509 19.9175C226.807 19.9175 226.241 20.1569 225.804 20.6378C225.366 21.1187 225.148 21.6857 225.148 22.3346V28.2062H222.782V21.1376C222.782 20.2682 222.755 19.3253 222.699 18.3047H224.773L224.884 19.8524H224.949C225.227 19.3715 225.637 18.9746 226.174 18.6575C226.816 18.2879 227.531 18.101 228.318 18.101C229.308 18.101 230.134 18.3992 230.79 18.9977C231.609 19.7306 232.014 20.8247 232.014 22.2779V28.2083Z" fill="white"/>
<path d="M247.918 19.9584H245.315V24.7674C245.315 25.9896 245.778 26.6007 246.693 26.6007C247.117 26.6007 247.469 26.5671 247.746 26.4978L247.807 28.1673C247.34 28.3311 246.727 28.413 245.972 28.413C245.038 28.413 244.312 28.1484 243.786 27.6192C243.259 27.09 242.997 26.1996 242.997 24.9501V19.9584H241.443V18.3099H242.997V16.4955L245.313 15.8445V18.3078H247.915V19.9584H247.918Z" fill="white"/>
<path d="M260.429 28.209H258.064V22.581C258.064 20.8065 257.351 19.9182 255.923 19.9182C254.827 19.9182 254.079 20.4327 253.668 21.4617C253.598 21.678 253.558 21.9426 253.558 22.2534V28.2069H251.197V13.7673H253.558V19.7334H253.603C254.347 18.6477 255.414 18.1059 256.796 18.1059C257.775 18.1059 258.584 18.4041 259.227 19.0026C260.028 19.7481 260.429 20.8569 260.429 22.3227V28.209Z" fill="white"/>
<path d="M273.333 22.7903C273.333 23.1851 273.301 23.5169 273.245 23.7878H266.157C266.189 24.7664 266.527 25.5119 267.183 26.0285C267.783 26.4905 268.557 26.7215 269.504 26.7215C270.552 26.7215 271.508 26.5661 272.37 26.2532L272.74 27.782C271.732 28.1894 270.546 28.3931 269.172 28.3931C267.526 28.3931 266.229 27.9416 265.291 27.0386C264.349 26.1356 263.882 24.9239 263.882 23.4035C263.882 21.9104 264.317 20.6672 265.194 19.676C266.11 18.6176 267.348 18.0884 268.911 18.0884C270.44 18.0884 271.601 18.6176 272.386 19.676C273.019 20.516 273.333 21.5555 273.333 22.7903ZM271.078 22.2212C271.096 21.5681 270.94 21.0053 270.62 20.5307C270.21 19.9196 269.585 19.613 268.739 19.613C267.968 19.613 267.339 19.9112 266.859 20.5097C266.466 20.9864 266.234 21.5555 266.157 22.2212H271.078Z" fill="white"/>
</svg>
