<svg width="305" height="84" viewBox="0 0 305 84" fill="none" xmlns="http://www.w3.org/2000/svg">
<path d="M292.757 83.9999H11.2599C5.06976 83.9999 0 79.2723 0 73.4999V10.5C0 4.72764 5.06976 2.40941e-05 11.2599 2.40941e-05H292.757C298.947 2.40941e-05 304.017 4.72764 304.017 10.5V73.4999C304.017 79.2723 298.947 83.9999 292.757 83.9999Z" fill="black"/>
<path d="M292.757 1.68264C297.97 1.68264 302.212 5.63852 302.212 10.5V73.4999C302.212 78.3614 297.97 82.3173 292.757 82.3173H11.2599C6.04655 82.3173 1.80439 78.3614 1.80439 73.4999V10.5C1.80439 5.63852 6.04655 1.68264 11.2599 1.68264H292.757ZM292.757 2.40941e-05H11.2599C5.06976 2.40941e-05 0 4.72764 0 10.5V73.4999C0 79.2723 5.06976 83.9999 11.2599 83.9999H292.757C298.947 83.9999 304.017 79.2723 304.017 73.4999V10.5C304.017 4.72764 298.947 2.40941e-05 292.757 2.40941e-05Z" fill="#A6A6A6"/>
<path d="M106.778 21.511C106.778 23.2645 106.215 24.6689 105.106 25.7162C103.831 26.9579 102.17 27.5826 100.135 27.5826C98.1899 27.5826 96.529 26.9474 95.1666 25.6952C93.8013 24.4247 93.1201 22.8655 93.1201 20.9991C93.1201 19.1327 93.8013 17.5735 95.1666 16.3135C96.529 15.0508 98.1899 14.4156 100.135 14.4156C101.103 14.4156 102.027 14.602 102.908 14.9485C103.786 15.2976 104.501 15.7701 105.019 16.3528L103.842 17.4606C102.939 16.4657 101.709 15.9748 100.135 15.9748C98.7163 15.9748 97.4861 16.4368 96.4418 17.3687C95.4087 18.3032 94.8907 19.5134 94.8907 20.9991C94.8907 22.4849 95.4087 23.7055 96.4418 24.64C97.4861 25.5614 98.7163 26.0339 100.135 26.0339C101.641 26.0339 102.908 25.5614 103.907 24.6295C104.566 24.0126 104.94 23.1621 105.039 22.0754H100.135V20.5581H106.677C106.756 20.8862 106.778 21.2039 106.778 21.511Z" fill="white" stroke="white" stroke-width="0.16" stroke-miterlimit="10"/>
<path d="M117.159 16.2511H111.014V20.2412H116.553V21.7584H111.014V25.7484H117.159V27.2946H109.274V14.705H117.159V16.2511Z" fill="white" stroke="white" stroke-width="0.16" stroke-miterlimit="10"/>
<path d="M124.492 27.2945H122.752V16.251H118.983V14.7049H128.264V16.251H124.492V27.2945Z" fill="white" stroke="white" stroke-width="0.16" stroke-miterlimit="10"/>
<path d="M134.975 27.2946V14.705H136.712V27.2946H134.975Z" fill="white" stroke="white" stroke-width="0.16" stroke-miterlimit="10"/>
<path d="M144.416 27.2945H142.691V16.251H138.907V14.7049H148.199V16.251H144.416V27.2945Z" fill="white" stroke="white" stroke-width="0.16" stroke-miterlimit="10"/>
<path d="M165.764 25.6742C164.433 26.9474 162.783 27.5826 160.815 27.5826C158.836 27.5826 157.187 26.9474 155.855 25.6742C154.527 24.4037 153.865 22.8445 153.865 20.9991C153.865 19.1537 154.527 17.5945 155.855 16.324C157.187 15.0508 158.836 14.4156 160.815 14.4156C162.772 14.4156 164.421 15.0508 165.753 16.3345C167.093 17.6155 167.754 19.1642 167.754 20.9991C167.754 22.8445 167.093 24.4037 165.764 25.6742ZM157.142 24.619C158.144 25.5614 159.363 26.0339 160.815 26.0339C162.257 26.0339 163.487 25.5614 164.478 24.619C165.477 23.6766 165.984 22.4665 165.984 20.9991C165.984 19.5317 165.477 18.3216 164.478 17.3792C163.487 16.4368 162.257 15.9643 160.815 15.9643C159.363 15.9643 158.144 16.4368 157.142 17.3792C156.143 18.3216 155.636 19.5317 155.636 20.9991C155.636 22.4665 156.143 23.6766 157.142 24.619Z" fill="white" stroke="white" stroke-width="0.16" stroke-miterlimit="10"/>
<path d="M170.192 27.2946V14.705H172.303L178.868 24.4963H178.944L178.868 22.076V14.705H180.604V27.2946H178.792L171.917 17.0203H171.841L171.917 19.451V27.2946H170.192Z" fill="white" stroke="white" stroke-width="0.16" stroke-miterlimit="10"/>
<path d="M153.444 45.68C148.155 45.68 143.834 49.4337 143.834 54.6128C143.834 59.75 148.155 63.5431 153.444 63.5431C158.745 63.5431 163.066 59.75 163.066 54.6128C163.066 49.4337 158.745 45.68 153.444 45.68ZM153.444 60.0256C150.542 60.0256 148.045 57.7917 148.045 54.6128C148.045 51.392 150.542 49.1975 153.444 49.1975C156.346 49.1975 158.854 51.392 158.854 54.6128C158.854 57.7917 156.346 60.0256 153.444 60.0256ZM132.475 45.68C127.175 45.68 122.865 49.4337 122.865 54.6128C122.865 59.75 127.175 63.5431 132.475 63.5431C137.773 63.5431 142.086 59.75 142.086 54.6128C142.086 49.4337 137.773 45.68 132.475 45.68ZM132.475 60.0256C129.57 60.0256 127.065 57.7917 127.065 54.6128C127.065 51.392 129.57 49.1975 132.475 49.1975C135.378 49.1975 137.874 51.392 137.874 54.6128C137.874 57.7917 135.378 60.0256 132.475 60.0256ZM107.523 48.4178V52.2136H117.243C116.959 54.3346 116.199 55.8938 115.034 56.9806C113.615 58.2931 111.405 59.75 107.523 59.75C101.542 59.75 96.8575 55.2481 96.8575 49.67C96.8575 44.0918 101.542 39.59 107.523 39.59C110.758 39.59 113.111 40.7686 114.848 42.2963L117.716 39.6215C115.287 37.4585 112.056 35.7969 107.523 35.7969C99.3206 35.7969 92.4268 42.0207 92.4268 49.67C92.4268 57.3192 99.3206 63.5431 107.523 63.5431C111.957 63.5431 115.287 62.1886 117.905 59.6476C120.588 57.146 121.424 53.6285 121.424 50.7882C121.424 49.9062 121.345 49.0951 121.204 48.4178H107.523ZM209.555 51.3605C208.764 49.3628 206.323 45.68 201.352 45.68C196.426 45.68 192.324 49.2998 192.324 54.6128C192.324 59.6161 196.383 63.5431 201.825 63.5431C206.225 63.5431 208.764 61.0415 209.808 59.5846L206.543 57.5555C205.453 59.0412 203.97 60.0256 201.825 60.0256C199.694 60.0256 198.165 59.1147 197.186 57.3192L209.997 52.3763L209.555 51.3605ZM196.493 54.3346C196.383 50.8906 199.362 49.1266 201.495 49.1266C203.168 49.1266 204.586 49.9062 205.059 51.0218L196.493 54.3346ZM186.081 62.9997H190.292V36.7497H186.081V62.9997ZM179.184 47.6697H179.043C178.097 46.625 176.293 45.68 174.007 45.68C169.211 45.68 164.825 49.607 164.825 54.6417C164.825 59.6476 169.211 63.5431 174.007 63.5431C176.293 63.5431 178.097 62.5902 179.043 61.514H179.184V62.795C179.184 66.2101 177.228 68.0449 174.072 68.0449C171.499 68.0449 169.903 66.3124 169.244 64.8556L165.582 66.2809C166.638 68.6487 169.433 71.5624 174.072 71.5624C179.009 71.5624 183.176 68.8534 183.176 62.2621V46.2233H179.184V47.6697ZM174.368 60.0256C171.465 60.0256 169.036 57.7602 169.036 54.6417C169.036 51.4943 171.465 49.1975 174.368 49.1975C177.228 49.1975 179.482 51.4943 179.482 54.6417C179.482 57.7602 177.228 60.0256 174.368 60.0256ZM229.271 36.7497H219.199V62.9997H223.399V53.0536H229.271C233.935 53.0536 238.509 49.9062 238.509 44.9003C238.509 39.8971 233.924 36.7497 229.271 36.7497ZM229.381 49.4022H223.399V40.4011H229.381C232.516 40.4011 234.307 42.8292 234.307 44.9003C234.307 46.9321 232.516 49.4022 229.381 49.4022ZM255.343 45.6301C252.308 45.6301 249.153 46.8796 247.855 49.649L251.582 51.1058C252.384 49.649 253.859 49.1765 255.419 49.1765C257.598 49.1765 259.808 50.3971 259.841 52.5522V52.8278C259.081 52.4183 257.454 51.812 255.453 51.812C251.439 51.812 247.348 53.8726 247.348 57.7182C247.348 61.2357 250.636 63.5011 254.332 63.5011C257.159 63.5011 258.718 62.312 259.698 60.9286H259.841V62.9577H263.898V52.8882C263.898 48.2341 260.171 45.6301 255.343 45.6301ZM254.836 60.0151C253.463 60.0151 251.548 59.3798 251.548 57.7917C251.548 55.76 253.935 54.9803 256.002 54.9803C257.851 54.9803 258.718 55.361 259.841 55.8623C259.512 58.2931 257.268 60.0151 254.836 60.0151ZM278.676 46.205L273.849 57.5843H273.705L268.714 46.205H264.185L271.684 62.1072L267.405 70.9561H271.794L283.349 46.205H278.676ZM240.818 62.9997H245.029V36.7497H240.818V62.9997Z" fill="white"/>
<path d="M23.5019 15.8307C22.8404 16.4764 22.4575 17.4818 22.4575 18.7838V65.2254C22.4575 66.5274 22.8404 67.5328 23.5019 68.1786L23.6651 68.3203L51.5727 42.3065V41.6922L23.6651 15.6784L23.5019 15.8307Z" fill="url(#paint0_linear_45_339)"/>
<path d="M60.862 50.9827L51.5698 42.3071V41.6928L60.8733 33.0172L61.0816 33.1301L72.0994 38.9759C75.2437 40.635 75.2437 43.365 72.0994 45.0345L61.0816 50.8698L60.862 50.9827Z" fill="url(#paint1_linear_45_339)"/>
<path d="M61.0812 50.8698L51.5694 41.9999L23.4985 68.1791C24.5429 69.2029 26.2459 69.3263 28.1826 68.3025L61.0812 50.8698Z" fill="url(#paint2_linear_45_339)"/>
<path d="M61.0812 33.1291L28.1826 15.6964C26.2459 14.6832 24.5429 14.8065 23.4985 15.8303L51.5694 41.999L61.0812 33.1291Z" fill="url(#paint3_linear_45_339)"/>
<defs>
<linearGradient id="paint0_linear_45_339" x1="49.0949" y1="65.7091" x2="13.9376" y2="28.0076" gradientUnits="userSpaceOnUse">
<stop stop-color="#00A0FF"/>
<stop offset="0.0066" stop-color="#00A1FF"/>
<stop offset="0.2601" stop-color="#00BEFF"/>
<stop offset="0.5122" stop-color="#00D2FF"/>
<stop offset="0.7604" stop-color="#00DFFF"/>
<stop offset="1" stop-color="#00E3FF"/>
</linearGradient>
<linearGradient id="paint1_linear_45_339" x1="76.1938" y1="41.997" x2="21.703" y2="41.997" gradientUnits="userSpaceOnUse">
<stop stop-color="#FFE000"/>
<stop offset="0.4087" stop-color="#FFBD00"/>
<stop offset="0.7754" stop-color="#FFA500"/>
<stop offset="1" stop-color="#FF9C00"/>
</linearGradient>
<linearGradient id="paint2_linear_45_339" x1="55.909" y1="37.1781" x2="8.23284" y2="-13.9482" gradientUnits="userSpaceOnUse">
<stop stop-color="#FF3A44"/>
<stop offset="1" stop-color="#C31162"/>
</linearGradient>
<linearGradient id="paint3_linear_45_339" x1="16.4325" y1="83.6292" x2="37.7221" y2="60.7992" gradientUnits="userSpaceOnUse">
<stop stop-color="#32A071"/>
<stop offset="0.0685" stop-color="#2DA771"/>
<stop offset="0.4762" stop-color="#15CF74"/>
<stop offset="0.8009" stop-color="#06E775"/>
<stop offset="1" stop-color="#00F076"/>
</linearGradient>
</defs>
</svg>
